<?xml version="1.0" standalone="no"?>
<!DOCTYPE svg PUBLIC "-//W3C//DTD SVG 20010904//EN"
 "http://www.w3.org/TR/2001/REC-SVG-20010904/DTD/svg10.dtd">
<svg version="1.0" xmlns="http://www.w3.org/2000/svg"
 width="700.000000pt" height="700.000000pt" viewBox="0 0 700.000000 700.000000"
 preserveAspectRatio="xMidYMid meet">
<metadata>
Created by potrace 1.14, written by Peter Selinger 2001-2017
</metadata>
<g transform="translate(0.000000,700.000000) scale(0.100000,-0.100000)"
fill="#000000" stroke="none">
<path d="M3415 6992 c-135 -8 -339 -61 -465 -118 -161 -74 -277 -158 -409
-293 -190 -196 -309 -435 -357 -719 -20 -115 -14 -367 10 -477 69 -307 218
-553 465 -765 l53 -46 -42 -29 c-48 -33 -200 -191 -247 -256 l-31 -45 701
-701 c386 -386 718 -718 737 -738 41 -43 41 -44 -75 -81 -350 -111 -734 24
-933 330 -27 40 -54 88 -61 107 -7 19 -17 43 -22 54 -18 42 -40 143 -46 213
l-6 72 -260 0 -260 0 6 -92 c15 -233 90 -455 222 -653 61 -92 211 -256 275
-300 l41 -29 -63 -55 c-115 -102 -248 -252 -248 -280 0 -6 329 -339 730 -741
402 -402 730 -734 730 -739 0 -13 -176 -68 -245 -77 -80 -10 -205 -8 -252 5
-21 6 -50 12 -64 15 -14 2 -60 18 -103 35 -215 86 -380 258 -460 480 -30 84
-35 104 -43 196 -3 39 -9 72 -14 75 -5 4 -481 5 -511 1 -4 -1 -6 -7 -3 -13 2
-7 6 -49 9 -93 27 -447 317 -878 727 -1085 323 -163 706 -189 1045 -69 254 89
467 245 627 456 21 29 37 57 35 63 -1 5 -333 340 -737 744 l-733 734 58 22
c199 74 410 77 593 9 293 -109 502 -382 527 -689 l7 -76 258 0 c300 0 267 -17
255 126 -32 351 -211 687 -488 913 l-47 39 57 48 c102 85 252 255 252 284 0 6
-328 340 -730 741 -401 401 -730 733 -730 736 0 7 62 34 115 51 99 31 282 42
380 24 365 -68 643 -370 672 -728 l6 -78 258 0 c200 0 259 3 260 13 4 39 -11
185 -26 257 -62 296 -225 567 -457 761 l-57 47 47 39 c99 81 262 263 262 292
0 6 -166 176 -369 379 l-369 368 -366 0 -367 0 366 -366 365 -365 -27 -12
c-125 -55 -224 -73 -368 -68 -135 4 -216 24 -331 79 -538 262 -613 1014 -138
1377 223 171 504 218 769 127 245 -84 444 -296 515 -548 11 -41 23 -106 26
-145 4 -38 8 -72 10 -74 2 -3 117 -5 255 -5 222 -1 252 1 260 15 4 9 7 18 5
20 -2 2 -6 38 -9 79 -56 720 -695 1270 -1422 1222z"/>
<path d="M1048 5979 c-193 -192 -289 -306 -441 -525 -62 -90 -181 -295 -239
-414 -106 -217 -183 -423 -243 -655 -36 -137 -36 -138 -61 -280 -8 -49 -18
-103 -21 -120 -2 -16 -6 -43 -8 -60 -1 -16 -6 -68 -11 -115 -11 -107 -12 -495
-1 -615 7 -79 19 -177 33 -255 2 -14 7 -45 10 -70 3 -25 8 -48 10 -51 1 -3 10
-39 19 -80 32 -149 48 -206 99 -355 129 -381 287 -678 535 -1004 124 -163 127
-166 324 -364 l168 -169 187 186 186 186 -45 38 c-24 20 -100 94 -169 164
-291 295 -504 623 -655 1014 -38 98 -81 230 -90 274 -2 9 -8 36 -15 61 -13 50
-12 45 -33 150 -18 87 -27 143 -33 185 -2 17 -6 53 -10 80 -10 77 -13 512 -4
590 17 142 21 172 41 280 104 569 389 1113 802 1529 62 61 134 131 161 155
l48 44 -185 185 -185 185 -174 -174z"/>
<path d="M5596 5961 l-179 -179 44 -38 c24 -21 100 -94 169 -164 319 -323 560
-716 698 -1140 40 -122 76 -247 86 -303 3 -15 10 -53 16 -85 5 -31 12 -68 15
-82 3 -14 7 -49 11 -78 3 -29 8 -63 11 -75 9 -39 11 -520 2 -602 -47 -438
-175 -837 -384 -1200 -65 -114 -218 -338 -255 -375 -3 -3 -32 -36 -64 -75 -62
-73 -256 -269 -315 -318 l-34 -28 184 -184 184 -184 40 36 c71 62 206 196 269
267 33 39 77 88 97 110 143 161 354 490 467 728 108 228 215 534 258 743 16
79 54 301 59 350 4 33 9 71 11 85 9 47 11 525 3 605 -15 165 -21 220 -24 225
-2 3 -6 30 -10 60 -4 30 -8 57 -10 60 -2 3 -6 24 -10 48 -10 70 -72 311 -105
412 -119 358 -297 702 -515 995 -49 66 -93 125 -99 131 -6 6 -36 41 -66 77
-72 88 -346 357 -362 357 -7 0 -94 -80 -192 -179z"/>
<path d="M1563 4921 c-122 -172 -200 -311 -281 -502 -77 -179 -151 -465 -169
-654 -10 -100 -10 -415 -1 -515 39 -408 207 -841 458 -1180 l60 -80 185 185
185 185 -46 64 c-166 238 -287 551 -319 821 -3 28 -8 65 -11 83 -6 38 -6 308
0 337 2 11 7 49 11 85 27 248 142 558 290 781 36 54 65 102 65 107 0 7 -347
359 -363 368 -1 1 -30 -37 -64 -85z"/>
<path d="M5192 4816 c-100 -102 -179 -187 -174 -190 11 -6 91 -127 118 -176
10 -19 24 -42 30 -50 20 -29 97 -205 126 -290 41 -123 68 -237 83 -360 4 -30
9 -64 11 -75 5 -24 5 -310 0 -345 -2 -14 -6 -50 -10 -80 -33 -263 -147 -566
-298 -793 l-66 -98 182 -183 181 -183 28 31 c60 65 191 277 262 421 88 180
170 415 198 575 6 30 15 84 22 125 28 167 28 561 0 715 -2 14 -6 38 -9 54 -60
344 -220 724 -413 984 -21 28 -47 62 -57 76 -10 14 -22 26 -25 26 -3 0 -88
-83 -189 -184z"/>
</g>
</svg>
