<?xml version="1.0" encoding="iso-8859-1"?>
<!-- Generator: Adobe Illustrator 26.5.0, SVG Export Plug-In . SVG Version: 6.00 Build 0)  -->
<svg version="1.1" id="Layer_1" xmlns="http://www.w3.org/2000/svg" xmlns:xlink="http://www.w3.org/1999/xlink" x="0px" y="0px"
	 viewBox="0 0 231.005 50" style="enable-background:new 0 0 231.005 50;" xml:space="preserve">
<g>
	<g>
		<path d="M207.142,14.53v14.525h-5.649v-0.002l-0.002,0.002L186.966,14.53h7.988l6.539,6.539V14.53h0.01
			c0-4.908-3.979-8.887-8.887-8.887c-4.908,0-8.887,3.979-8.887,8.887h0.01v14.525h-5.649V14.53c0-8.009,6.516-14.525,14.525-14.525
			C200.626,0.005,207.142,6.521,207.142,14.53z M216.479,23.407V0.005h-5.649v29.051h5.649h14.525v-5.649H216.479z M82.812,8.254
			c1.73,1.73,2.596,4.004,2.596,6.277h5.653c0-3.717-1.418-7.435-4.254-10.271c-5.672-5.672-14.869-5.672-20.542,0
			c-5.673,5.673-5.673,14.869,0,20.542c5.672,5.672,14.869,5.673,20.542,0c0.684-0.684,1.283-1.419,1.801-2.193l-8.078-8.078h-7.988
			l7.946,7.946c-3.321,1.648-7.466,1.093-10.229-1.669c-3.461-3.461-3.461-9.092,0-12.553S79.351,4.793,82.812,8.254z
			 M143.466,14.53c0,8.009-6.516,14.525-14.525,14.525c-8.009,0-14.525-6.516-14.525-14.525c0-8.009,6.516-14.525,14.525-14.525
			C136.95,0.005,143.466,6.521,143.466,14.53z M137.827,14.53c0-4.908-3.979-8.887-8.887-8.887c-4.908,0-8.887,3.979-8.887,8.887
			c0,4.908,3.979,8.887,8.887,8.887C133.849,23.417,137.827,19.438,137.827,14.53z M99.89,0.005h-5.649v29.051h5.649h14.525v-5.649
			H99.89V0.005z M175.039,20.359c0,4.673-3.697,8.472-8.324,8.657v0.045h-20.652v-0.01v-5.638V5.649V0v0h5.649v0h8.562
			c0,0,0.001,0,0.001,0c0,0,0,0,0.001,0h0.276v0.014c4.662,0.147,8.398,3.963,8.398,8.661c0,1.146-0.228,2.237-0.631,3.238
			C172.166,12.8,175.039,16.241,175.039,20.359z M151.711,11.701h0.441v0h8.121c1.671,0,3.026-1.355,3.026-3.026
			c0-1.671-1.355-3.026-3.026-3.026h-8.563V11.701z M169.39,20.359c0-1.614-1.267-2.921-2.86-3.009h-14.819v6.062h6.543
			c-0.003-0.009-0.008-0.018-0.011-0.027h8.121C168.035,23.385,169.39,22.03,169.39,20.359z"/>
		<path d="M64.158,49.577c-0.659-0.282-1.181-0.687-1.564-1.217c-0.383-0.53-0.581-1.155-0.592-1.877h2.536
			c0.034,0.485,0.205,0.868,0.516,1.15c0.31,0.282,0.735,0.423,1.276,0.423c0.552,0,0.986-0.132,1.302-0.397
			c0.315-0.265,0.473-0.612,0.473-1.04c0-0.349-0.107-0.637-0.321-0.862c-0.214-0.225-0.482-0.403-0.803-0.533
			c-0.321-0.129-0.764-0.273-1.327-0.431c-0.767-0.225-1.389-0.448-1.868-0.668s-0.891-0.552-1.234-0.997
			c-0.344-0.445-0.516-1.04-0.516-1.784c0-0.699,0.174-1.307,0.524-1.826c0.349-0.518,0.84-0.916,1.471-1.192
			c0.631-0.276,1.353-0.414,2.164-0.414c1.217,0,2.207,0.296,2.967,0.888c0.761,0.592,1.181,1.418,1.26,2.477h-2.604
			c-0.023-0.406-0.194-0.741-0.516-1.006c-0.321-0.265-0.747-0.397-1.277-0.397c-0.462,0-0.831,0.118-1.107,0.355
			c-0.276,0.237-0.414,0.581-0.414,1.031c0,0.316,0.104,0.578,0.313,0.786c0.208,0.209,0.468,0.378,0.778,0.507
			c0.31,0.13,0.747,0.279,1.31,0.448c0.766,0.226,1.392,0.451,1.877,0.676c0.484,0.226,0.902,0.564,1.251,1.015
			c0.349,0.451,0.524,1.043,0.524,1.775c0,0.632-0.163,1.217-0.49,1.758s-0.806,0.972-1.437,1.293
			C67.998,49.839,67.249,50,66.381,50C65.558,50,64.817,49.859,64.158,49.577z M76.458,39.99v2.959h3.973v1.877h-3.973v3.128h4.481
			v1.928h-6.848V38.063h6.848v1.928H76.458z M94.668,49.881h-2.367l-5.36-8.099v8.099h-2.367V38.063h2.367l5.36,8.116v-8.116h2.367
			V49.881z M100.34,49.577c-0.659-0.282-1.181-0.687-1.564-1.217c-0.383-0.53-0.581-1.155-0.592-1.877h2.536
			c0.034,0.485,0.205,0.868,0.516,1.15c0.31,0.282,0.735,0.423,1.276,0.423c0.552,0,0.986-0.132,1.302-0.397
			c0.315-0.265,0.473-0.612,0.473-1.04c0-0.349-0.107-0.637-0.321-0.862c-0.214-0.225-0.482-0.403-0.803-0.533
			c-0.321-0.129-0.764-0.273-1.327-0.431c-0.767-0.225-1.389-0.448-1.868-0.668c-0.479-0.22-0.891-0.552-1.234-0.997
			c-0.344-0.445-0.516-1.04-0.516-1.784c0-0.699,0.174-1.307,0.524-1.826c0.349-0.518,0.84-0.916,1.471-1.192
			c0.631-0.276,1.353-0.414,2.164-0.414c1.217,0,2.207,0.296,2.967,0.888c0.761,0.592,1.181,1.418,1.26,2.477h-2.604
			c-0.023-0.406-0.194-0.741-0.516-1.006c-0.321-0.265-0.747-0.397-1.277-0.397c-0.462,0-0.831,0.118-1.107,0.355
			c-0.276,0.237-0.414,0.581-0.414,1.031c0,0.316,0.104,0.578,0.313,0.786c0.208,0.209,0.468,0.378,0.778,0.507
			c0.31,0.13,0.747,0.279,1.31,0.448c0.766,0.226,1.392,0.451,1.877,0.676c0.484,0.226,0.902,0.564,1.251,1.015
			c0.349,0.451,0.524,1.043,0.524,1.775c0,0.632-0.163,1.217-0.49,1.758s-0.806,0.972-1.437,1.293
			c-0.631,0.321-1.381,0.482-2.249,0.482C101.74,50,100.999,49.859,100.34,49.577z M112.708,49.222
			c-0.924-0.518-1.657-1.237-2.198-2.156c-0.541-0.919-0.811-1.958-0.811-3.119c0-1.15,0.27-2.184,0.811-3.102
			c0.541-0.919,1.274-1.637,2.198-2.156c0.924-0.518,1.938-0.778,3.043-0.778c1.116,0,2.133,0.259,3.052,0.778
			c0.919,0.519,1.646,1.237,2.181,2.156c0.535,0.919,0.803,1.953,0.803,3.102c0,1.161-0.268,2.201-0.803,3.119
			c-0.536,0.919-1.266,1.637-2.19,2.156C117.87,49.741,116.856,50,115.751,50C114.646,50,113.632,49.741,112.708,49.222z
			 M117.628,47.405c0.541-0.321,0.964-0.78,1.268-1.378c0.305-0.597,0.457-1.291,0.457-2.08c0-0.789-0.152-1.479-0.457-2.071
			c-0.304-0.592-0.727-1.045-1.268-1.361c-0.541-0.315-1.167-0.473-1.877-0.473c-0.71,0-1.339,0.158-1.885,0.473
			c-0.547,0.316-0.972,0.769-1.276,1.361c-0.304,0.592-0.456,1.282-0.456,2.071c0,0.789,0.152,1.482,0.456,2.08
			c0.304,0.598,0.73,1.057,1.276,1.378c0.547,0.321,1.175,0.482,1.885,0.482C116.461,47.886,117.087,47.726,117.628,47.405z
			 M131.12,49.881l-2.604-4.599h-1.116v4.599h-2.367V38.08h4.43c0.913,0,1.691,0.16,2.333,0.482
			c0.643,0.321,1.124,0.755,1.446,1.302c0.321,0.547,0.482,1.158,0.482,1.834c0,0.778-0.226,1.479-0.676,2.105
			c-0.451,0.626-1.122,1.057-2.012,1.293l2.824,4.785H131.12z M127.401,43.507h1.978c0.643,0,1.122-0.155,1.437-0.465
			c0.316-0.31,0.473-0.741,0.473-1.293c0-0.541-0.158-0.961-0.473-1.26c-0.316-0.299-0.795-0.448-1.437-0.448h-1.978V43.507z
			 M150.234,49.577c-0.659-0.282-1.181-0.687-1.564-1.217c-0.383-0.53-0.581-1.155-0.592-1.877h2.536
			c0.034,0.485,0.205,0.868,0.516,1.15c0.31,0.282,0.735,0.423,1.276,0.423c0.552,0,0.986-0.132,1.302-0.397
			c0.315-0.265,0.473-0.612,0.473-1.04c0-0.349-0.107-0.637-0.321-0.862c-0.214-0.225-0.482-0.403-0.803-0.533
			c-0.321-0.129-0.764-0.273-1.327-0.431c-0.767-0.225-1.389-0.448-1.868-0.668c-0.479-0.22-0.891-0.552-1.234-0.997
			c-0.344-0.445-0.516-1.04-0.516-1.784c0-0.699,0.174-1.307,0.524-1.826c0.349-0.518,0.84-0.916,1.471-1.192
			c0.631-0.276,1.353-0.414,2.164-0.414c1.217,0,2.207,0.296,2.967,0.888c0.761,0.592,1.181,1.418,1.26,2.477h-2.604
			c-0.023-0.406-0.194-0.741-0.516-1.006c-0.321-0.265-0.747-0.397-1.277-0.397c-0.462,0-0.831,0.118-1.107,0.355
			c-0.276,0.237-0.414,0.581-0.414,1.031c0,0.316,0.104,0.578,0.313,0.786c0.208,0.209,0.468,0.378,0.778,0.507
			c0.31,0.13,0.747,0.279,1.31,0.448c0.766,0.226,1.392,0.451,1.877,0.676c0.484,0.226,0.902,0.564,1.251,1.015
			c0.349,0.451,0.524,1.043,0.524,1.775c0,0.632-0.163,1.217-0.49,1.758s-0.806,0.972-1.437,1.293
			c-0.631,0.321-1.381,0.482-2.249,0.482C151.635,50,150.893,49.859,150.234,49.577z M169.551,38.08l-3.99,7.693v4.109h-2.367
			v-4.109l-4.007-7.693h2.671l2.536,5.394l2.519-5.394H169.551z M174.26,49.577c-0.659-0.282-1.181-0.687-1.564-1.217
			c-0.383-0.53-0.581-1.155-0.592-1.877h2.536c0.034,0.485,0.205,0.868,0.516,1.15c0.31,0.282,0.735,0.423,1.276,0.423
			c0.552,0,0.986-0.132,1.302-0.397c0.315-0.265,0.473-0.612,0.473-1.04c0-0.349-0.107-0.637-0.321-0.862
			c-0.214-0.225-0.482-0.403-0.803-0.533c-0.321-0.129-0.764-0.273-1.327-0.431c-0.767-0.225-1.389-0.448-1.868-0.668
			c-0.479-0.22-0.891-0.552-1.234-0.997c-0.344-0.445-0.516-1.04-0.516-1.784c0-0.699,0.174-1.307,0.524-1.826
			c0.349-0.518,0.84-0.916,1.471-1.192c0.631-0.276,1.353-0.414,2.164-0.414c1.217,0,2.207,0.296,2.967,0.888
			c0.761,0.592,1.181,1.418,1.26,2.477h-2.604c-0.023-0.406-0.194-0.741-0.516-1.006c-0.321-0.265-0.747-0.397-1.277-0.397
			c-0.462,0-0.831,0.118-1.107,0.355c-0.276,0.237-0.414,0.581-0.414,1.031c0,0.316,0.104,0.578,0.313,0.786
			c0.208,0.209,0.468,0.378,0.778,0.507c0.31,0.13,0.747,0.279,1.31,0.448c0.766,0.226,1.392,0.451,1.877,0.676
			c0.484,0.226,0.902,0.564,1.251,1.015c0.349,0.451,0.524,1.043,0.524,1.775c0,0.632-0.163,1.217-0.49,1.758
			s-0.806,0.972-1.437,1.293c-0.631,0.321-1.381,0.482-2.249,0.482C175.66,50,174.919,49.859,174.26,49.577z M192.224,38.08v1.911
			h-3.145v9.891h-2.367V39.99h-3.145V38.08H192.224z M197.803,39.99v2.959h3.973v1.877h-3.973v3.128h4.481v1.928h-6.848V38.063
			h6.848v1.928H197.803z M218.786,38.08v11.802h-2.367v-7.676l-3.161,7.676h-1.792l-3.179-7.676v7.676h-2.367V38.08h2.688
			l3.754,8.775l3.753-8.775H218.786z M224.459,49.577c-0.659-0.282-1.181-0.687-1.564-1.217c-0.383-0.53-0.581-1.155-0.592-1.877
			h2.536c0.034,0.485,0.205,0.868,0.516,1.15c0.31,0.282,0.735,0.423,1.276,0.423c0.553,0,0.987-0.132,1.302-0.397
			c0.315-0.265,0.473-0.612,0.473-1.04c0-0.349-0.107-0.637-0.322-0.862c-0.214-0.225-0.482-0.403-0.803-0.533
			c-0.322-0.129-0.764-0.273-1.327-0.431c-0.767-0.225-1.389-0.448-1.869-0.668c-0.479-0.22-0.89-0.552-1.234-0.997
			c-0.344-0.445-0.516-1.04-0.516-1.784c0-0.699,0.174-1.307,0.524-1.826c0.349-0.518,0.84-0.916,1.471-1.192
			c0.631-0.276,1.352-0.414,2.164-0.414c1.218,0,2.207,0.296,2.967,0.888c0.761,0.592,1.181,1.418,1.26,2.477h-2.604
			c-0.023-0.406-0.194-0.741-0.516-1.006c-0.321-0.265-0.747-0.397-1.277-0.397c-0.462,0-0.831,0.118-1.107,0.355
			c-0.276,0.237-0.414,0.581-0.414,1.031c0,0.316,0.104,0.578,0.313,0.786c0.208,0.209,0.468,0.378,0.778,0.507
			c0.31,0.13,0.747,0.279,1.311,0.448c0.766,0.226,1.392,0.451,1.877,0.676c0.484,0.226,0.902,0.564,1.251,1.015
			c0.349,0.451,0.524,1.043,0.524,1.775c0,0.632-0.164,1.217-0.491,1.758s-0.806,0.972-1.437,1.293
			C228.3,49.839,227.55,50,226.682,50C225.859,50,225.118,49.859,224.459,49.577z"/>
	</g>
	<path d="M22.397,19.763l7.841,7.841c0,0,0,0,0,0l2.719,2.719c-0.342,0.51-0.737,0.995-1.187,1.445
		c-0.348,0.348-0.716,0.663-1.1,0.946c0.384,0.283,0.752,0.598,1.1,0.946c1.869,1.869,2.804,4.319,2.804,6.768l-3.725,0
		c0-1.498-0.57-2.996-1.711-4.136c-1.821-1.821-4.552-2.186-6.741-1.1l7.841,7.841c0,0,0,0,0,0l2.719,2.719
		c-0.342,0.51-0.737,0.995-1.187,1.445c-3.738,3.738-9.799,3.738-13.537,0c-1.869-1.869-2.804-4.319-2.804-6.768l3.725,0
		c0,1.498,0.57,2.996,1.711,4.136c1.821,1.821,4.552,2.186,6.741,1.1l-7.841-7.841c0,0,0,0,0,0l-2.719-2.719
		c0.342-0.51,0.737-0.995,1.187-1.445c0.348-0.348,0.716-0.663,1.1-0.946c-0.384-0.283-0.752-0.598-1.1-0.946
		c-1.869-1.869-2.804-4.319-2.804-6.768l3.725,0c0,1.498,0.57,2.996,1.711,4.136c1.821,1.821,4.552,2.186,6.741,1.1l-7.841-7.841
		c0,0,0,0,0,0l-2.719-2.719c0.342-0.51,0.737-0.995,1.187-1.445c0.347-0.347,0.715-0.662,1.099-0.945
		c-0.384-0.283-0.751-0.598-1.099-0.945c-3.738-3.738-3.738-9.799,0-13.537c3.738-3.738,9.799-3.738,13.537,0
		c1.869,1.869,2.804,4.319,2.804,6.769l-3.725,0c0-1.498-0.57-2.996-1.711-4.136c-2.281-2.281-5.992-2.281-8.273,0
		c-2.281,2.281-2.281,5.992,0,8.273c1.821,1.821,4.552,2.186,6.741,1.1l-5.237-5.237h5.264l5.324,5.324
		c-0.342,0.51-0.737,0.995-1.187,1.445c-0.347,0.347-0.715,0.662-1.099,0.945c0.384,0.283,0.751,0.598,1.099,0.945
		c1.869,1.869,2.804,4.319,2.804,6.768l-3.725,0c0-1.498-0.57-2.996-1.711-4.136C27.317,19.042,24.585,18.676,22.397,19.763z
		 M38.434,14.235l-2.642,2.642c1.76,2.329,2.714,5.152,2.714,8.123c0,2.984-0.962,5.819-2.738,8.154l2.641,2.641
		c2.38-2.953,3.806-6.707,3.806-10.795C42.216,20.926,40.799,17.183,38.434,14.235z M14.225,16.856l-2.641-2.641
		c-2.375,2.951-3.798,6.702-3.798,10.785c0,4.088,1.426,7.842,3.806,10.795l2.641-2.641c-1.776-2.335-2.737-5.17-2.737-8.154
		C11.496,22.02,12.455,19.189,14.225,16.856z M41.313,6.055l-2.631,2.631c0.473,0.398,0.932,0.817,1.374,1.259
		c4.021,4.021,6.236,9.368,6.236,15.055c0,5.687-2.215,11.034-6.236,15.055c-0.442,0.442-0.901,0.861-1.374,1.259l2.631,2.631
		c5.32-4.584,8.689-11.371,8.689-18.945C50.002,17.425,46.633,10.639,41.313,6.055z M3.71,24.999c0-5.687,2.215-11.034,6.236-15.055
		c0.442-0.442,0.901-0.861,1.374-1.259L8.689,6.055C3.369,10.639,0,17.425,0,24.999c0,7.574,3.369,14.36,8.689,18.944l2.631-2.631
		c-0.473-0.398-0.932-0.817-1.374-1.259C5.924,36.033,3.71,30.686,3.71,24.999z"/>
</g>
</svg>
